<?xml version="1.0" encoding="utf-8"?>
<!-- Generator: Adobe Illustrator 22.1.0, SVG Export Plug-In . SVG Version: 6.00 Build 0)  -->
<svg version="1.1" id="Layer_1" xmlns="http://www.w3.org/2000/svg" xmlns:xlink="http://www.w3.org/1999/xlink" x="0px" y="0px"
	 viewBox="0 0 74 56.8" style="enable-background:new 0 0 74 56.8;" xml:space="preserve">
<style type="text/css">
	.st0{fill:#E84C3D;}
	.st1{fill:#FACA44;}
	.st2{fill:#00ADEF;}
	.st3{fill:#FFF8D1;}
</style>
<title>graph-04</title>
<rect x="0.6" y="0.4" class="st0" width="13.1" height="12.8"/>
<path d="M13.7,13.7H0.6c-0.3,0-0.6-0.3-0.6-0.6c0,0,0,0,0,0V0.4C0,0,0.3-0.2,0.6-0.2h13.1c0.3,0,0.6,0.3,0.6,0.6v12.8
	C14.4,13.5,14.1,13.7,13.7,13.7C13.8,13.7,13.7,13.7,13.7,13.7z M1.2,12.5h11.9V1H1.2V12.5z"/>
<rect x="0.6" y="43.4" class="st1" width="13.1" height="12.8"/>
<path d="M13.7,56.8H0.6c-0.3,0-0.6-0.3-0.6-0.6V43.4c0-0.3,0.3-0.6,0.6-0.6c0,0,0,0,0,0h13.1c0.3,0,0.6,0.3,0.6,0.6c0,0,0,0,0,0
	v12.8C14.3,56.5,14.1,56.8,13.7,56.8z M1.2,55.5h11.9V44H1.2V55.5z"/>
<rect x="60.2" y="0.4" class="st2" width="13.1" height="12.8"/>
<path d="M73.4,13.7H60.2c-0.3,0-0.6-0.3-0.6-0.6c0,0,0,0,0,0V0.4c0-0.3,0.3-0.6,0.6-0.6h13.1C73.7-0.2,74,0,74,0.4v12.8
	C74,13.5,73.7,13.7,73.4,13.7C73.4,13.7,73.4,13.7,73.4,13.7z M60.8,12.5h11.9V1H60.8V12.5z"/>
<rect x="60.2" y="43.4" class="st0" width="13.1" height="12.8"/>
<path d="M73.4,56.8H60.2c-0.3,0-0.6-0.3-0.6-0.6V43.4c0-0.3,0.3-0.6,0.6-0.6c0,0,0,0,0,0h13.1c0.3,0,0.6,0.3,0.6,0.6c0,0,0,0,0,0
	v12.8C74,56.5,73.7,56.8,73.4,56.8z M60.8,55.5h11.9V44H60.8V55.5z"/>
<rect x="24.4" y="17.7" class="st3" width="25.1" height="22.1"/>
<path d="M49.6,40.4H24.4c-0.3,0-0.6-0.3-0.6-0.6V17.7c0-0.3,0.3-0.6,0.6-0.6h25.1c0.3,0,0.6,0.3,0.6,0.6v22.1
	C50.2,40.1,49.9,40.4,49.6,40.4z M25,39.2h23.9V18.3H25V39.2z"/>
<path d="M24.4,21.9H7.2c-0.3,0-0.6-0.3-0.6-0.6v-7.2c0-0.3,0.3-0.6,0.6-0.6c0.3,0,0.6,0.3,0.6,0.6v6.6h16.6c0.3,0,0.6,0.3,0.6,0.6
	C25,21.7,24.7,21.9,24.4,21.9z"/>
<path d="M7.2,44c-0.3,0-0.6-0.3-0.6-0.6v-7.7c0-0.3,0.3-0.6,0.6-0.6h17.2c0.3,0,0.6,0.3,0.6,0.6c0,0.3-0.3,0.6-0.6,0.6H7.8v7.1
	C7.8,43.7,7.5,44,7.2,44z"/>
<path d="M66.8,21.6H49.6c-0.3,0-0.6-0.3-0.6-0.6s0.3-0.6,0.6-0.6c0,0,0,0,0,0h16.6v-6.3c0-0.3,0.3-0.6,0.6-0.6
	c0.3,0,0.6,0.3,0.6,0.6V21C67.4,21.4,67.1,21.6,66.8,21.6L66.8,21.6z"/>
<path d="M66.8,44c-0.3,0-0.6-0.3-0.6-0.6v-7H49.6c-0.3,0-0.6-0.3-0.6-0.6s0.3-0.6,0.6-0.6h17.2c0.3,0,0.6,0.3,0.6,0.6v7.6
	C67.4,43.7,67.1,44,66.8,44z"/>
<path class="st0" d="M31.3,21c1.4,0,2.6,1.2,2.6,2.6s-1.2,2.6-2.6,2.6c-1.4,0-2.6-1.2-2.6-2.6l0,0C28.8,22.1,29.9,21,31.3,21z"/>
<path d="M31.3,26.7c-1.8,0-3.2-1.4-3.2-3.2c0-1.8,1.4-3.2,3.2-3.2c1.8,0,3.2,1.4,3.2,3.2c0,0,0,0,0,0C34.5,25.3,33.1,26.7,31.3,26.7
	z M31.3,21.6c-1.1,0-2,0.9-2,2s0.9,2,2,2c1.1,0,2-0.9,2-2l0,0C33.3,22.5,32.4,21.6,31.3,21.6z"/>
<path d="M24.4,24.9h-2.6c-0.3,0-0.6-0.3-0.6-0.6s0.3-0.6,0.6-0.6h2.6c0.3,0,0.6,0.3,0.6,0.6S24.7,24.9,24.4,24.9z"/>
<path d="M24.4,27.2h-2.6c-0.3,0-0.6-0.3-0.6-0.6c0-0.3,0.3-0.6,0.6-0.6h2.6c0.3,0,0.6,0.3,0.6,0.6C25,26.9,24.7,27.2,24.4,27.2z"/>
<path d="M24.4,29.4h-2.6c-0.3,0-0.6-0.3-0.6-0.6c0-0.3,0.3-0.6,0.6-0.6h2.6c0.3,0,0.6,0.3,0.6,0.6C25,29.1,24.7,29.4,24.4,29.4z"/>
<path d="M24.4,31.6h-2.6c-0.3,0-0.6-0.3-0.6-0.6c0-0.3,0.3-0.6,0.6-0.6c0,0,0,0,0,0h2.6c0.3,0,0.6,0.3,0.6,0.6
	C25,31.3,24.7,31.6,24.4,31.6z"/>
<path d="M24.4,33.8h-2.6c-0.3,0-0.6-0.3-0.6-0.6s0.3-0.6,0.6-0.6h2.6c0.3,0,0.6,0.3,0.6,0.6S24.7,33.8,24.4,33.8z"/>
<path d="M52.2,24.9h-2.6c-0.3,0-0.6-0.3-0.6-0.6s0.3-0.6,0.6-0.6h2.6c0.3,0,0.6,0.3,0.6,0.6S52.5,24.9,52.2,24.9z"/>
<path d="M52.2,27.2h-2.6c-0.3,0-0.6-0.3-0.6-0.6c0-0.3,0.3-0.6,0.6-0.6h2.6c0.3,0,0.6,0.3,0.6,0.6C52.8,26.9,52.5,27.2,52.2,27.2z"
	/>
<path d="M52.2,29.4h-2.6c-0.3,0-0.6-0.3-0.6-0.6c0-0.3,0.3-0.6,0.6-0.6h2.6c0.3,0,0.6,0.3,0.6,0.6C52.8,29.1,52.5,29.4,52.2,29.4z"
	/>
<path d="M52.2,31.6h-2.6c-0.3,0-0.6-0.3-0.6-0.6c0-0.3,0.3-0.6,0.6-0.6c0,0,0,0,0,0h2.6c0.3,0,0.6,0.3,0.6,0.6
	C52.8,31.3,52.5,31.6,52.2,31.6z"/>
<path d="M52.2,33.8h-2.6c-0.3,0-0.6-0.3-0.6-0.6s0.3-0.6,0.6-0.6h2.6c0.3,0,0.6,0.3,0.6,0.6S52.5,33.8,52.2,33.8z"/>
<path d="M10.5,3.9H3.8c-0.3,0-0.6-0.3-0.6-0.6c0-0.3,0.3-0.6,0.6-0.6h6.7c0.3,0,0.6,0.3,0.6,0.6C11.1,3.6,10.9,3.9,10.5,3.9z"/>
<path d="M10.5,7.4H3.8c-0.3,0-0.6-0.3-0.6-0.6c0-0.3,0.3-0.6,0.6-0.6h6.7c0.3,0,0.6,0.3,0.6,0.6C11.1,7.1,10.9,7.4,10.5,7.4z"/>
<path d="M10.5,10.8H9.2c-0.3,0-0.6-0.3-0.6-0.6c0-0.3,0.3-0.6,0.6-0.6c0,0,0,0,0,0h1.4c0.3,0,0.6,0.3,0.6,0.6
	C11.1,10.5,10.9,10.8,10.5,10.8C10.5,10.8,10.5,10.8,10.5,10.8z"/>
<path d="M6.7,10.8H3.8c-0.3,0-0.6-0.3-0.6-0.6c0-0.3,0.3-0.6,0.6-0.6c0,0,0,0,0,0h2.8c0.3,0,0.6,0.3,0.6,0.6
	C7.3,10.5,7,10.8,6.7,10.8z"/>
<path d="M10.5,46.9H3.8c-0.3,0-0.6-0.3-0.6-0.6c0-0.3,0.3-0.6,0.6-0.6c0,0,0,0,0,0h6.7c0.3,0,0.6,0.3,0.6,0.6
	C11.1,46.6,10.9,46.9,10.5,46.9C10.5,46.9,10.5,46.9,10.5,46.9z"/>
<path d="M10.5,50.4H3.8c-0.3,0-0.6-0.3-0.6-0.6s0.3-0.6,0.6-0.6h6.7c0.3,0,0.6,0.3,0.6,0.6S10.9,50.4,10.5,50.4z"/>
<path d="M10.5,53.8H9.2c-0.3,0-0.6-0.3-0.6-0.6c0-0.3,0.3-0.6,0.6-0.6h1.4c0.3,0,0.6,0.3,0.6,0.6C11.1,53.5,10.9,53.8,10.5,53.8
	C10.5,53.8,10.5,53.8,10.5,53.8z"/>
<path d="M6.7,53.8H3.8c-0.3,0-0.6-0.3-0.6-0.6c0-0.3,0.3-0.6,0.6-0.6h2.8c0.3,0,0.6,0.3,0.6,0.6C7.3,53.5,7,53.8,6.7,53.8z"/>
<path d="M70.1,46.9h-6.7c-0.3,0-0.6-0.3-0.6-0.6c0-0.3,0.3-0.6,0.6-0.6h6.7c0.3,0,0.6,0.3,0.6,0.6C70.8,46.6,70.5,46.9,70.1,46.9z"
	/>
<path d="M70.1,50.4h-6.7c-0.3,0-0.6-0.3-0.6-0.6s0.3-0.6,0.6-0.6h6.7c0.3,0,0.6,0.3,0.6,0.6S70.5,50.4,70.1,50.4L70.1,50.4z"/>
<path d="M70.1,53.8h-1.4c-0.3,0-0.6-0.3-0.6-0.6c0-0.3,0.3-0.6,0.6-0.6c0,0,0,0,0,0h1.4c0.3,0,0.6,0.3,0.6,0.6
	C70.8,53.5,70.5,53.8,70.1,53.8C70.1,53.8,70.1,53.8,70.1,53.8z"/>
<path d="M66.3,53.8h-2.8c-0.3,0-0.6-0.3-0.6-0.6c0-0.3,0.3-0.6,0.6-0.6c0,0,0,0,0,0h2.8c0.3,0,0.6,0.3,0.6,0.6
	C66.9,53.5,66.6,53.8,66.3,53.8C66.3,53.8,66.3,53.8,66.3,53.8z"/>
<path d="M70.1,3.9h-6.7c-0.3,0-0.6-0.3-0.6-0.6c0-0.3,0.3-0.6,0.6-0.6h6.7c0.3,0,0.6,0.3,0.6,0.6C70.8,3.6,70.5,3.9,70.1,3.9z"/>
<path d="M70.1,7.4h-6.7c-0.3,0-0.6-0.3-0.6-0.6c0-0.3,0.3-0.6,0.6-0.6h6.7c0.3,0,0.6,0.3,0.6,0.6C70.8,7.1,70.5,7.4,70.1,7.4
	L70.1,7.4z"/>
<path d="M70.1,10.8h-1.4c-0.3,0-0.6-0.3-0.6-0.6c0-0.3,0.3-0.6,0.6-0.6c0,0,0,0,0,0h1.4c0.3,0,0.6,0.3,0.6,0.6
	C70.8,10.5,70.5,10.8,70.1,10.8z"/>
<path d="M66.3,10.8h-2.8c-0.3,0-0.6-0.3-0.6-0.6c0-0.3,0.3-0.6,0.6-0.6h2.8c0.3,0,0.6,0.3,0.6,0.6S66.6,10.8,66.3,10.8
	C66.3,10.8,66.3,10.8,66.3,10.8z"/>
</svg>
