<svg id="Layer_1" data-name="Layer 1" xmlns="http://www.w3.org/2000/svg" viewBox="0 0 50 50"><defs><style>.cls-1{fill:#faca44;}.cls-2{fill:#707384;}.cls-3{fill:#e84c3d;}.cls-4{fill:#fff8d1;}.cls-5{fill:#00adef;}</style></defs><title>graph-01</title><path class="cls-1" d="M35.11,19.22a14.74,14.74,0,0,1,.1,1.64c0,9.13-6,8.24-6.72,20.08H15C14.36,29.1,8.32,30,8.32,20.86A13.46,13.46,0,0,1,20.91,7.43l-.05.09,2.06,1.19a8.91,8.91,0,0,0,0,5.28l-2.06,1.19,1.89,3.27,2.07-1.19a8.72,8.72,0,0,0,4.56,2.65v2.37h3.78V19.91A9.21,9.21,0,0,0,35.11,19.22Z"/><path d="M28.49,41.35H15a.42.42,0,0,1-.41-.39A19.19,19.19,0,0,0,10.88,29.8a14,14,0,0,1-3-8.94A13.89,13.89,0,0,1,20.89,7a.41.41,0,0,1,.37.2l0,.08,1.82,1a.41.41,0,0,1,.19.48,8.55,8.55,0,0,0,0,5,.39.39,0,0,1-.19.47l-1.7,1,1.48,2.56,1.71-1a.4.4,0,0,1,.51.08,8.28,8.28,0,0,0,4.35,2.51.42.42,0,0,1,.32.41v2h3v-2a.4.4,0,0,1,.32-.4,8.57,8.57,0,0,0,1.86-.66.42.42,0,0,1,.38,0,.43.43,0,0,1,.21.31,14.4,14.4,0,0,1,.1,1.69,14,14,0,0,1-3,8.94A19.19,19.19,0,0,0,28.9,41,.41.41,0,0,1,28.49,41.35Zm-13.06-.82H28.1A20,20,0,0,1,32,29.35a13.17,13.17,0,0,0,2.83-8.49c0-.34,0-.68,0-1a9.78,9.78,0,0,1-1.19.4v2.05a.41.41,0,0,1-.41.42H29.38a.42.42,0,0,1-.41-.42V20.23a9.15,9.15,0,0,1-4.23-2.45l-1.78,1a.41.41,0,0,1-.56-.15l-1.9-3.28a.41.41,0,0,1,0-.31.47.47,0,0,1,.19-.25l1.78-1a9.26,9.26,0,0,1,0-4.9l-1.77-1h0a13.06,13.06,0,0,0-11.9,13,13.17,13.17,0,0,0,2.83,8.49A20,20,0,0,1,15.43,40.53Z"/><path class="cls-2" d="M15.34,40.94H28.19a.51.51,0,0,1,.51.51v1.22a.51.51,0,0,1-.51.52H15.34a.51.51,0,0,1-.51-.52V41.45A.51.51,0,0,1,15.34,40.94Z"/><path d="M28.19,43.6H15.34a.93.93,0,0,1-.93-.93V41.45a.93.93,0,0,1,.93-.92H28.19a.92.92,0,0,1,.92.92v1.22A.93.93,0,0,1,28.19,43.6ZM15.34,41.35a.11.11,0,0,0-.1.1v1.22a.11.11,0,0,0,.1.11H28.19a.11.11,0,0,0,.1-.11V41.45a.11.11,0,0,0-.1-.1Z"/><rect class="cls-2" x="15.74" y="43.19" width="12.05" height="2.25" rx="0.52" ry="0.52"/><path d="M27.27,45.85h-11a.93.93,0,0,1-.93-.93V43.7a.93.93,0,0,1,.93-.92h11a.93.93,0,0,1,.93.92v1.22A.93.93,0,0,1,27.27,45.85Zm-11-2.25a.1.1,0,0,0-.11.1v1.22a.11.11,0,0,0,.11.11h11a.11.11,0,0,0,.11-.11V43.7a.11.11,0,0,0-.11-.1Z"/><path class="cls-2" d="M25.61,45.44a2.71,2.71,0,0,1,0,.29,3.86,3.86,0,1,1-7.71,0,2.71,2.71,0,0,1,0-.29Z"/><path d="M21.76,50a4.27,4.27,0,0,1-4.26-4.27,2.44,2.44,0,0,1,0-.27.45.45,0,0,1,.41-.43h7.69a.41.41,0,0,1,.41.39c0,.13,0,.22,0,.31A4.27,4.27,0,0,1,21.76,50Zm-3.44-4.15a3.45,3.45,0,0,0,6.89,0Z"/><path d="M24.16,41.42h0a.41.41,0,0,1-.39-.42L24,34.84l-6.38-5.47a.41.41,0,0,1,.54-.62l6.52,5.6a.38.38,0,0,1,.14.33L24.57,41A.41.41,0,0,1,24.16,41.42Z"/><path d="M26.81,41.16h0a.42.42,0,0,1-.41-.42l.08-8.3a.39.39,0,0,1,.41-.41.41.41,0,0,1,.41.42l-.08,8.3A.41.41,0,0,1,26.81,41.16Z"/><path d="M21.05,41.35a.41.41,0,0,1-.42-.41V24.64a.42.42,0,0,1,.83,0v16.3A.41.41,0,0,1,21.05,41.35Z"/><path d="M17,41.16a.41.41,0,0,1-.41-.42V35.2a.41.41,0,0,1,.41-.41.41.41,0,0,1,.41.41v5.54A.42.42,0,0,1,17,41.16Z"/><path class="cls-3" d="M33.16,2.8a8.72,8.72,0,0,1,4.57,2.63l2.06-1.19,1.89,3.28L39.62,8.71a8.7,8.7,0,0,1,0,5.28l2.06,1.19-1.89,3.27-2.06-1.19a8.75,8.75,0,0,1-4.57,2.65v2.37H29.38V19.91a8.72,8.72,0,0,1-4.56-2.65l-2.07,1.19-1.89-3.27L22.92,14a8.91,8.91,0,0,1,0-5.28L20.86,7.52l1.89-3.28,2.07,1.19A8.69,8.69,0,0,1,29.38,2.8V.41h3.78Z"/><path d="M33.16,22.7H29.38a.42.42,0,0,1-.41-.42V20.23a9.15,9.15,0,0,1-4.23-2.45l-1.78,1a.41.41,0,0,1-.56-.15l-1.9-3.28a.41.41,0,0,1,0-.31.47.47,0,0,1,.19-.25l1.78-1a9.26,9.26,0,0,1,0-4.9l-1.77-1a.4.4,0,0,1-.16-.56L22.4,4A.4.4,0,0,1,23,3.89l1.78,1A9.08,9.08,0,0,1,29,2.47V.41A.41.41,0,0,1,29.38,0h3.78a.41.41,0,0,1,.41.41V2.47a9.11,9.11,0,0,1,4.24,2.45l1.77-1a.4.4,0,0,1,.32,0,.39.39,0,0,1,.25.19L42,7.32a.42.42,0,0,1,0,.31.44.44,0,0,1-.19.25l-1.78,1a9.26,9.26,0,0,1,0,4.9l1.78,1a.42.42,0,0,1,.15.56l-1.89,3.28a.47.47,0,0,1-.25.19.45.45,0,0,1-.32,0l-1.77-1a9.18,9.18,0,0,1-4.24,2.45v2.05A.41.41,0,0,1,33.16,22.7Zm-3.37-.83h3v-2a.42.42,0,0,1,.32-.41A8.35,8.35,0,0,0,37.43,17a.4.4,0,0,1,.51-.08l1.7,1,1.48-2.56-1.7-1a.39.39,0,0,1-.19-.47,8.34,8.34,0,0,0,0-5,.41.41,0,0,1,.19-.48l1.7-1L39.64,4.8l-1.7,1a.42.42,0,0,1-.51-.08A8.29,8.29,0,0,0,33.07,3.2a.41.41,0,0,1-.32-.4v-2h-3v2a.41.41,0,0,1-.32.4,8.23,8.23,0,0,0-4.35,2.51.42.42,0,0,1-.51.08l-1.71-1L21.42,7.37l1.7,1a.41.41,0,0,1,.19.48,8.55,8.55,0,0,0,0,5,.39.39,0,0,1-.19.47l-1.7,1,1.48,2.56,1.71-1a.4.4,0,0,1,.51.08,8.28,8.28,0,0,0,4.35,2.51.42.42,0,0,1,.32.41Z"/><path class="cls-4" d="M31.27,5.75a5.6,5.6,0,1,1-5.6,5.6A5.6,5.6,0,0,1,31.27,5.75Z"/><path d="M31.27,17.36a6,6,0,1,1,6-6A6,6,0,0,1,31.27,17.36Zm0-11.2a5.19,5.19,0,1,0,5.19,5.19A5.2,5.2,0,0,0,31.27,6.16Z"/><path d="M31.27,14.85a3.5,3.5,0,1,1,3.5-3.5A3.5,3.5,0,0,1,31.27,14.85Zm0-6.18A2.68,2.68,0,1,0,34,11.35,2.68,2.68,0,0,0,31.27,8.67Z"/><path class="cls-5" d="M26.89,29.22a1.61,1.61,0,1,1-1.61,1.61A1.62,1.62,0,0,1,26.89,29.22Z"/><path d="M26.89,32.85a2,2,0,1,1,2-2A2,2,0,0,1,26.89,32.85Zm0-3.22a1.2,1.2,0,1,0,1.2,1.2A1.2,1.2,0,0,0,26.89,29.63Z"/><path class="cls-5" d="M21.05,21.43a1.61,1.61,0,0,1,0,3.21,1.61,1.61,0,1,1,0-3.21Z"/><path d="M21.05,25.06a2,2,0,1,1,0-4,2,2,0,0,1,0,4Zm0-3.22a1.2,1.2,0,1,0,0,2.39,1.2,1.2,0,0,0,0-2.39Z"/><path d="M16.6,30.08a2,2,0,1,1,2-2A2,2,0,0,1,16.6,30.08Zm0-3.22a1.2,1.2,0,1,0,1.2,1.2A1.2,1.2,0,0,0,16.6,26.86Z"/><path class="cls-3" d="M17,31.87a1.61,1.61,0,1,1-1.61,1.61A1.61,1.61,0,0,1,17,31.87Z"/><path d="M17,35.5a2,2,0,1,1,2-2A2,2,0,0,1,17,35.5Zm0-3.22a1.2,1.2,0,1,0,1.2,1.2A1.2,1.2,0,0,0,17,32.28Z"/></svg>