<?xml version="1.0" encoding="utf-8"?>
<!-- Generator: Adobe Illustrator 22.1.0, SVG Export Plug-In . SVG Version: 6.00 Build 0)  -->
<svg version="1.1" id="Layer_1" xmlns="http://www.w3.org/2000/svg" xmlns:xlink="http://www.w3.org/1999/xlink" x="0px" y="0px"
	 viewBox="0 0 62.1 50" style="enable-background:new 0 0 62.1 50;" xml:space="preserve">
<style type="text/css">
	.st0{fill:#00ADEF;}
	.st1{fill:#FFF8D1;}
	.st2{fill:#E84C3D;}
	.st3{fill:#FACA44;}
</style>
<title>graph-03</title>
<polygon class="st0" points="3.1,20.8 34.3,20.8 34.3,25.7 39.2,25.7 39.2,45.1 3.1,45.1 "/>
<path d="M39.2,45.6H3.1c-0.3,0-0.5-0.2-0.5-0.5V20.8c0-0.3,0.2-0.5,0.5-0.5h31.2c0.3,0,0.5,0.2,0.5,0.5v4.3h4.4
	c0.3,0,0.5,0.2,0.5,0.5v0v19.4C39.7,45.4,39.5,45.6,39.2,45.6L39.2,45.6z M3.6,44.6h35.1V26.3h-4.4c-0.3,0-0.5-0.2-0.5-0.5v-4.4H3.6
	V44.6z"/>
<path class="st1" d="M0.7,45h40.8c0.3,0,0.6,0.3,0.6,0.6c0,0,0,0,0,0v1.6c0,1.2-1,2.2-2.2,2.2H2.3c-1.2,0-2.2-1-2.2-2.2v-1.6
	C0.1,45.3,0.3,45,0.7,45C0.7,45,0.7,45,0.7,45z"/>
<path d="M40,50H2.3c-1.5,0-2.7-1.2-2.7-2.7v-1.6c0-0.6,0.5-1.1,1.1-1.1h40.8c0.6,0,1.1,0.5,1.1,1.1v1.6C42.7,48.8,41.5,50,40,50z
	 M0.7,45.5c-0.1,0-0.1,0.1-0.1,0.1v1.6c0,1,0.8,1.7,1.7,1.7c0,0,0,0,0,0H40c0.9,0,1.7-0.8,1.7-1.7c0,0,0,0,0,0v-1.6
	c0-0.1,0-0.1-0.1-0.1H0.7z"/>
<path d="M21.2,49.1c-1,0-1.8-0.8-1.8-1.8s0.8-1.8,1.8-1.8c1,0,1.8,0.8,1.8,1.8S22.1,49.1,21.2,49.1L21.2,49.1z M21.2,46.6
	c-0.4,0-0.8,0.3-0.8,0.8c0,0.4,0.3,0.8,0.8,0.8c0.4,0,0.8-0.3,0.8-0.8C22,46.9,21.6,46.5,21.2,46.6C21.2,46.5,21.2,46.5,21.2,46.6
	L21.2,46.6z"/>
<path d="M35.8,18.9L35.8,18.9c-0.3,0-0.5-0.2-0.5-0.5c0,0,0,0,0,0L35.4,9c0-0.1,0-0.2,0.1-0.3l4-5.6c0.1-0.3,0.4-0.4,0.7-0.2
	c0.3,0.1,0.4,0.4,0.2,0.7c0,0-0.1,0.1-0.1,0.1l-4,5.5l-0.1,9.2C36.3,18.7,36.1,18.9,35.8,18.9z"/>
<path d="M37.5,18.6c-0.1,0-0.1,0-0.2,0c-0.3-0.1-0.4-0.4-0.3-0.6c0,0,0,0,0,0l3.2-7.9c0-0.1,0.1-0.1,0.1-0.2l5-4.7
	C45.5,5.1,45.6,5,45.7,5l4.3-0.3c0.3,0,0.5,0.2,0.6,0.5c0,0.3-0.2,0.5-0.5,0.6L45.9,6l-4.8,4.5L38,18.2
	C37.9,18.4,37.7,18.6,37.5,18.6z"/>
<path d="M39.4,18.7c-0.1,0-0.2,0-0.2-0.1c-0.2-0.1-0.3-0.5-0.2-0.7c0,0,0,0,0,0l3.6-6.1c0-0.1,0.1-0.1,0.1-0.1l4.2-3.4
	C47,8.1,47.1,8,47.2,8L57,7.8l0,0c0.3,0,0.5,0.2,0.5,0.5c0,0.3-0.2,0.5-0.5,0.5l-9.6,0.2l-4,3.3l-3.5,6.1
	C39.8,18.6,39.6,18.7,39.4,18.7z"/>
<path d="M50,13L50,13l-7-0.4c-0.3,0-0.5-0.3-0.5-0.5c0-0.3,0.3-0.5,0.5-0.5l7,0.5c0.3,0,0.5,0.2,0.5,0.5c0,0,0,0,0,0
	C50.5,12.8,50.3,13,50,13z"/>
<path d="M41.8,20.7c-0.2,0-0.4-0.1-0.5-0.3c-0.1-0.3,0-0.6,0.3-0.7l8.3-3.7c0.1,0,0.1,0,0.2,0l8.3-0.4c0.3,0,0.5,0.2,0.5,0.5
	c0,0.3-0.2,0.5-0.5,0.5L50.1,17L42,20.6C41.9,20.7,41.8,20.7,41.8,20.7z"/>
<path d="M46.3,24.1h-4.6c-0.3,0-0.5-0.2-0.5-0.5s0.2-0.5,0.5-0.5h4.4l5.9-2.9c0.3-0.1,0.6,0,0.7,0.2c0.1,0.3,0,0.6-0.2,0.7
	c0,0,0,0,0,0l-6,3C46.4,24.1,46.4,24.1,46.3,24.1z"/>
<path d="M48.2,26c-0.2,0-0.3-0.1-0.4-0.2l-1.7-2c-0.2-0.2-0.2-0.5,0-0.7c0,0,0,0,0,0c0.2-0.2,0.5-0.1,0.7,0.1l1.6,1.8H51l0,0
	c0.3,0,0.5,0.2,0.5,0.5c0,0.3-0.2,0.5-0.5,0.5L48.2,26L48.2,26z"/>
<rect x="34.3" y="18.1" class="st1" width="7.4" height="7.5"/>
<path d="M41.8,26.2h-7.4c-0.3,0-0.5-0.2-0.5-0.5v-7.5c0-0.3,0.2-0.5,0.5-0.5h7.4c0.3,0,0.5,0.2,0.5,0.5v7.5
	C42.3,25.9,42,26.2,41.8,26.2z M34.8,25.1h6.4v-6.5h-6.4L34.8,25.1z"/>
<path d="M39.4,23.8h-2.7c-0.3,0-0.5-0.2-0.5-0.5c0,0,0,0,0,0v-2.7c0-0.3,0.2-0.5,0.5-0.5h2.7c0.3,0,0.5,0.2,0.5,0.5c0,0,0,0,0,0v2.8
	C39.9,23.6,39.7,23.8,39.4,23.8z M37.2,22.7h1.7V21h-1.7L37.2,22.7z"/>
<path d="M29.9,25.3H12.4c-0.3,0-0.5-0.2-0.5-0.5c0-0.3,0.2-0.5,0.5-0.5c0,0,0,0,0,0h17.5c0.3,0,0.5,0.2,0.5,0.5
	C30.4,25,30.2,25.3,29.9,25.3z"/>
<path d="M15.3,29.4h-2.8c-0.3,0-0.6-0.2-0.6-0.4c0-0.3,0.2-0.6,0.4-0.6c0.1,0,0.1,0,0.2,0h2.8c0.3,0,0.5,0.3,0.4,0.6
	C15.7,29.2,15.5,29.3,15.3,29.4z"/>
<path d="M19.6,33.5h-7.1c-0.3,0-0.5-0.2-0.5-0.5s0.2-0.5,0.5-0.5c0,0,0,0,0,0h7.1c0.3,0,0.5,0.2,0.5,0.5
	C20.1,33.3,19.9,33.5,19.6,33.5z"/>
<path d="M29.9,37.6h-3.7c-0.3,0-0.5-0.2-0.5-0.5c0-0.3,0.2-0.5,0.5-0.5h3.7c0.3,0,0.5,0.2,0.5,0.5C30.4,37.4,30.2,37.6,29.9,37.6z"
	/>
<path d="M29.9,41.7H12.4c-0.3,0-0.6-0.2-0.6-0.4c0-0.3,0.2-0.6,0.4-0.6c0.1,0,0.1,0,0.2,0h17.5c0.3,0,0.5,0.3,0.4,0.6
	C30.3,41.5,30.1,41.7,29.9,41.7z"/>
<path d="M29.9,29.4H19.2c-0.3,0-0.5-0.3-0.4-0.6c0-0.2,0.2-0.4,0.4-0.4h10.7c0.3,0,0.5,0.3,0.4,0.6C30.3,29.2,30.1,29.3,29.9,29.4z"
	/>
<path d="M29.9,33.5h-6.3c-0.3,0-0.5-0.2-0.5-0.5c0-0.3,0.2-0.5,0.5-0.5h6.3c0.3,0,0.5,0.2,0.5,0.5C30.4,33.3,30.2,33.5,29.9,33.5z"
	/>
<path d="M16.7,37.6h-4.2c-0.3,0-0.5-0.2-0.5-0.5s0.2-0.5,0.5-0.5c0,0,0,0,0,0h4.2c0.3,0,0.5,0.2,0.5,0.5
	C17.2,37.4,16.9,37.6,16.7,37.6C16.7,37.6,16.7,37.6,16.7,37.6z"/>
<path d="M22.6,37.6h-2.3c-0.3,0-0.5-0.2-0.5-0.5c0-0.3,0.2-0.5,0.5-0.5h2.3c0.3,0,0.5,0.2,0.5,0.5C23.1,37.4,22.9,37.6,22.6,37.6
	C22.6,37.6,22.6,37.6,22.6,37.6z"/>
<path class="st2" d="M40.8,0.5c0.9,0,1.6,0.7,1.6,1.6s-0.7,1.6-1.6,1.6c-0.9-0.1-1.5-0.9-1.5-1.7C39.4,1.3,40,0.6,40.8,0.5L40.8,0.5
	z"/>
<path d="M40.8,4.2c-1.2,0-2.1-1-2.1-2.1c0-1.2,1-2.1,2.1-2.1s2.1,1,2.1,2.1c0,0,0,0,0,0C42.9,3.3,42,4.2,40.8,4.2
	C40.8,4.2,40.8,4.2,40.8,4.2z M40.8,1c-0.6,0-1.1,0.5-1.1,1.1c0,0.6,0.5,1.1,1.1,1.1c0.6,0,1.1-0.5,1.1-1.1C41.9,1.5,41.4,1,40.8,1
	C40.8,1,40.8,1,40.8,1z"/>
<path class="st3" d="M51.5,3.4c0.9,0,1.6,0.7,1.6,1.6c0,0.9-0.7,1.6-1.6,1.6c-0.9,0-1.6-0.7-1.6-1.6c0,0,0,0,0,0
	C49.9,4.1,50.7,3.4,51.5,3.4z"/>
<path d="M51.5,7.2c-1.2,0-2.1-0.9-2.1-2.1c0-1.2,0.9-2.1,2.1-2.1c1.2,0,2.1,0.9,2.1,2.1C53.7,6.2,52.7,7.1,51.5,7.2
	C51.5,7.2,51.5,7.2,51.5,7.2z M51.5,4c-0.6,0-1.1,0.5-1.1,1.1c0,0.6,0.5,1.1,1.1,1.1c0.6,0,1.1-0.5,1.1-1.1c0,0,0,0,0,0
	C52.6,4.4,52.1,4,51.5,4C51.5,4,51.5,4,51.5,4z"/>
<path class="st0" d="M58.6,6.7c0.9,0,1.6,0.7,1.7,1.5c0,0.9-0.7,1.6-1.5,1.7c-0.9,0-1.6-0.7-1.7-1.5c0,0,0,0,0-0.1
	C57,7.5,57.7,6.8,58.6,6.7z"/>
<path d="M58.6,10.4c-1.2,0-2.1-1-2.1-2.1s1-2.1,2.1-2.1c1.2,0,2.1,1,2.1,2.1c0,0,0,0,0,0C60.7,9.5,59.8,10.4,58.6,10.4
	C58.6,10.4,58.6,10.4,58.6,10.4z M58.6,7.2c-0.6,0-1.1,0.5-1.1,1.1c0,0.6,0.5,1.1,1.1,1.1c0.6,0,1.1-0.5,1.1-1.1
	C59.7,7.7,59.2,7.2,58.6,7.2C58.6,7.2,58.6,7.2,58.6,7.2z"/>
<path class="st0" d="M51.6,10.8c0.9,0,1.6,0.7,1.6,1.6c0,0.9-0.7,1.6-1.6,1.6c-0.9,0-1.6-0.7-1.6-1.5C49.9,11.6,50.6,10.9,51.6,10.8
	C51.5,10.8,51.6,10.8,51.6,10.8z"/>
<path d="M51.6,14.6c-1.2,0-2.1-1-2.1-2.1c0-1.2,1-2.1,2.1-2.1c1.2,0,2.1,1,2.1,2.1c0,0,0,0,0,0.1C53.7,13.7,52.7,14.6,51.6,14.6z
	 M51.6,11.4c-0.6,0-1.1,0.5-1.1,1.1c0,0.6,0.5,1.1,1.1,1.1c0.6,0,1.1-0.5,1.1-1.1C52.7,11.9,52.2,11.4,51.6,11.4
	C51.6,11.4,51.6,11.4,51.6,11.4z"/>
<path class="st0" d="M53.6,18.1c0.9,0,1.6,0.7,1.7,1.6c0,0.9-0.7,1.6-1.6,1.7c-0.9,0-1.6-0.7-1.7-1.6c0,0,0,0,0,0
	C52,18.9,52.7,18.1,53.6,18.1z"/>
<path d="M53.6,21.8c-1.2,0-2.1-1-2.1-2.2c0-1.2,1-2.1,2.2-2.1c1.2,0,2.1,1,2.1,2.1C55.8,20.9,54.8,21.9,53.6,21.8
	C53.6,21.8,53.6,21.8,53.6,21.8z M53.6,18.6c-0.6,0-1.1,0.5-1.1,1.1c0,0.6,0.5,1.1,1.1,1.1c0.6,0,1.1-0.5,1.1-1.1c0,0,0,0,0,0
	C54.7,19.1,54.2,18.6,53.6,18.6C53.6,18.6,53.6,18.6,53.6,18.6z"/>
<path class="st2" d="M52.6,23.8c0.9,0.1,1.5,0.9,1.5,1.7c-0.1,0.8-0.7,1.4-1.5,1.5c-0.9,0.1-1.7-0.6-1.7-1.5
	c-0.1-0.9,0.6-1.7,1.5-1.7C52.4,23.7,52.5,23.7,52.6,23.8z"/>
<path d="M52.6,27.4c-1.2,0-2.1-0.9-2.1-2.1c0-1.2,0.9-2.1,2.1-2.1c1.2,0,2.1,0.9,2.1,2.1c0,0,0,0,0,0C54.7,26.5,53.7,27.4,52.6,27.4
	z M52.6,24.2c-0.6,0-1.1,0.5-1.1,1.1c0,0.6,0.5,1.1,1.1,1.1c0.6,0,1.1-0.5,1.1-1.1c0,0,0,0,0,0C53.6,24.7,53.2,24.2,52.6,24.2z"/>
<path class="st3" d="M59.9,13.9c0.9,0,1.6,0.7,1.6,1.6c0,0.9-0.7,1.6-1.6,1.6c-0.9,0-1.6-0.7-1.6-1.6C58.3,14.6,59,13.9,59.9,13.9
	C59.9,13.9,59.9,13.9,59.9,13.9z"/>
<path d="M59.9,17.6c-1.2,0-2.1-0.9-2.1-2.1c0-1.2,0.9-2.1,2.1-2.1c1.2,0,2.1,0.9,2.1,2.1c0,0,0,0,0,0C62,16.7,61.1,17.6,59.9,17.6z
	 M59.9,14.4c-0.6,0-1.1,0.5-1.1,1.1c0,0.6,0.5,1.1,1.1,1.1c0.6,0,1.1-0.5,1.1-1.1c0,0,0,0,0,0C61,14.9,60.5,14.4,59.9,14.4z"/>
</svg>
